<?xml version="1.0" encoding="UTF-8"?>
<svg width="388px" height="49px" viewBox="0 0 388 49" version="1.1" xmlns="http://www.w3.org/2000/svg" xmlns:xlink="http://www.w3.org/1999/xlink">
    <!-- Generator: Sketch 51.2 (57519) - http://www.bohemiancoding.com/sketch -->
    <title>Group</title>
    <desc>Created with Sketch.</desc>
    <defs></defs>
    <g id="Page-1" stroke="none" stroke-width="1" fill="none" fill-rule="evenodd">
        <g id="ac-bw-text" transform="translate(-22.000000, -22.000000)" fill="#FFFFFF">
            <g id="Group" transform="translate(22.000000, 22.000000)">
                <path d="M211.1733,12.7529 C216.1503,12.7529 219.7473,14.4289 223.0973,17.3359 C223.5423,17.7309 223.5423,18.3209 223.1473,18.7159 L220.9793,20.9329 C220.6343,21.3769 220.1913,21.3769 219.7473,20.9329 C217.4313,18.9129 214.2773,17.6319 211.2223,17.6319 C204.1743,17.6319 198.8533,23.5449 198.8533,30.4439 C198.8533,37.3429 204.2243,43.2069 211.2713,43.2069 C214.8683,43.2069 217.3813,41.7769 219.7473,39.9539 C220.1913,39.6089 220.6343,39.6579 220.9303,39.9049 L223.1963,42.1229 C223.5913,42.4679 223.4923,43.1069 223.1473,43.4529 C219.7963,46.7059 215.5593,48.2329 211.1733,48.2329 C201.3173,48.2329 193.3833,40.3989 193.3833,30.5419 C193.3833,20.6869 201.3173,12.7529 211.1733,12.7529" id="Fill-1"></path>
                <path d="M228.415,14.1816 C228.415,13.6896 228.858,13.2456 229.351,13.2456 L232.603,13.2456 C233.146,13.2456 233.54,13.6896 233.54,14.1816 L233.54,27.9306 L251.576,27.9306 L251.576,14.1816 C251.576,13.6896 251.97,13.2456 252.512,13.2456 L255.765,13.2456 C256.257,13.2456 256.7,13.6896 256.7,14.1816 L256.7,46.8036 C256.7,47.2966 256.257,47.7406 255.765,47.7406 L252.512,47.7406 C251.97,47.7406 251.576,47.2966 251.576,46.8036 L251.576,32.5636 L233.54,32.5636 L233.54,46.8036 C233.54,47.2966 233.146,47.7406 232.603,47.7406 L229.351,47.7406 C228.858,47.7406 228.415,47.2966 228.415,46.8036 L228.415,14.1816 Z" id="Fill-3"></path>
                <path d="M263.3716,14.1816 C263.3716,13.6896 263.8156,13.2456 264.3086,13.2456 L267.6096,13.2456 C268.1516,13.2456 268.5466,13.6896 268.5466,14.1816 L268.5466,34.5336 C268.5466,39.4606 271.7006,43.3046 276.7256,43.3046 C281.8016,43.3046 285.0046,39.5106 285.0046,34.6326 L285.0046,14.1816 C285.0046,13.6896 285.3996,13.2456 285.9406,13.2456 L289.2436,13.2456 C289.7356,13.2456 290.1786,13.6896 290.1786,14.1816 L290.1786,34.8776 C290.1786,42.3686 284.5126,48.2336 276.7256,48.2336 C268.9896,48.2336 263.3716,42.3686 263.3716,34.8776 L263.3716,14.1816 Z" id="Fill-5"></path>
                <path d="M310.7715,30 C313.9745,30 316.7845,27.29 316.7845,23.89 C316.7845,20.687 313.9745,18.025 310.7715,18.025 L302.0005,18.025 L302.0005,30 L310.7715,30 Z M296.8265,14.182 C296.8265,13.689 297.2195,13.246 297.7615,13.246 L311.1665,13.246 C317.0795,13.246 321.9095,17.927 321.9095,23.791 C321.9095,28.325 318.9025,32.069 314.6155,33.795 L321.3675,46.312 C321.7115,46.951 321.3675,47.74 320.5285,47.74 L316.6845,47.74 C316.2915,47.74 315.9955,47.493 315.8965,47.297 L309.3425,34.238 L301.9025,34.238 L301.9025,46.804 C301.9025,47.297 301.4585,47.74 300.9645,47.74 L297.7615,47.74 C297.2195,47.74 296.8265,47.297 296.8265,46.804 L296.8265,14.182 Z" id="Fill-7"></path>
                <path d="M342.1084,12.7529 C347.0854,12.7529 350.6824,14.4289 354.0324,17.3359 C354.4764,17.7309 354.4764,18.3209 354.0824,18.7159 L351.9144,20.9329 C351.5694,21.3769 351.1264,21.3769 350.6824,20.9329 C348.3664,18.9129 345.2124,17.6319 342.1574,17.6319 C335.1094,17.6319 329.7884,23.5449 329.7884,30.4439 C329.7884,37.3429 335.1594,43.2069 342.2064,43.2069 C345.8024,43.2069 348.3164,41.7769 350.6824,39.9539 C351.1264,39.6089 351.5694,39.6579 351.8654,39.9049 L354.1314,42.1229 C354.5264,42.4679 354.4264,43.1069 354.0824,43.4529 C350.7314,46.7059 346.4944,48.2329 342.1084,48.2329 C332.2524,48.2329 324.3184,40.3989 324.3184,30.5419 C324.3184,20.6869 332.2524,12.7529 342.1084,12.7529" id="Fill-9"></path>
                <path d="M359.3496,14.1816 C359.3496,13.6896 359.7926,13.2456 360.2866,13.2456 L363.5376,13.2456 C364.0806,13.2456 364.4746,13.6896 364.4746,14.1816 L364.4746,27.9306 L382.5106,27.9306 L382.5106,14.1816 C382.5106,13.6896 382.9046,13.2456 383.4466,13.2456 L386.6996,13.2456 C387.1926,13.2456 387.6346,13.6896 387.6346,14.1816 L387.6346,46.8036 C387.6346,47.2966 387.1926,47.7406 386.6996,47.7406 L383.4466,47.7406 C382.9046,47.7406 382.5106,47.2966 382.5106,46.8036 L382.5106,32.5636 L364.4746,32.5636 L364.4746,46.8036 C364.4746,47.2966 364.0806,47.7406 363.5376,47.7406 L360.2866,47.7406 C359.7926,47.7406 359.3496,47.2966 359.3496,46.8036 L359.3496,14.1816 Z" id="Fill-11"></path>
                <path d="M13.9512,41.2227 C16.7002,41.2227 19.3632,38.9027 19.8782,37.8717 L19.8782,33.1467 C19.8782,33.1467 17.5592,32.1167 15.0682,32.1167 C11.7172,32.1167 9.4842,34.0057 9.4842,36.7557 C9.4842,39.3327 11.2882,41.2227 13.9512,41.2227 M13.7802,25.9317 C17.2152,25.9317 20.0502,26.8757 20.0502,26.8757 C20.1362,22.4947 18.7622,20.9497 15.5832,20.9497 C12.4052,20.9497 7.9382,21.6367 5.9622,22.2377 C4.7602,22.5807 4.1582,21.8087 3.9862,20.6917 L3.2132,16.2247 C2.9552,14.9357 3.6422,14.3347 4.4162,14.0767 C5.1032,13.8197 10.6012,12.4447 16.0982,12.4447 C26.8372,12.4447 29.3282,18.0287 29.3282,27.3917 L29.3282,46.0327 C29.3282,46.8917 28.5552,47.6647 27.6962,47.6647 L24.6032,47.6647 C24.0022,47.6647 23.5722,47.4077 23.1422,46.4627 L22.1122,44.1427 C20.1362,45.9477 16.9572,48.5247 11.6322,48.5247 C4.7602,48.5247 0.0352,44.0577 0.0352,36.7557 C0.0352,30.6567 5.0172,25.9317 13.7802,25.9317" id="Fill-13"></path>
                <path d="M51.4019,12.4443 C56.7279,12.4443 60.8519,14.5923 64.1159,18.5443 C64.7169,19.3173 64.5459,20.3473 63.6859,20.9493 L59.7349,24.7283 C58.9619,25.4163 58.1889,24.9863 57.5879,24.4703 C56.2129,22.9243 54.0659,21.7213 51.6599,21.7213 C47.0209,21.7213 43.2419,25.6733 43.2419,30.4843 C43.2419,35.3813 46.9349,39.2463 51.5739,39.2463 C55.2679,39.2463 56.8999,37.4423 58.4459,35.9823 C59.0479,35.3813 59.9059,35.2093 60.5939,35.7243 L64.2879,38.9023 C65.1469,39.5903 65.4909,40.4493 64.8889,41.3073 C61.9679,45.8613 57.4149,48.5243 51.3169,48.5243 C41.6089,48.5243 33.1049,40.7923 33.1049,30.4843 C33.1049,20.3473 41.7809,12.4443 51.4019,12.4443" id="Fill-15"></path>
                <path d="M72.4463,22.3232 L69.5253,22.3232 C68.6663,22.3232 67.9793,21.5512 67.9793,20.6912 L67.9793,14.9352 C67.9793,13.9902 68.6663,13.3032 69.5253,13.3032 L72.4463,13.3032 L72.4463,3.7682 C72.4463,2.9092 73.2193,2.1362 74.0783,2.1362 L81.1223,2.0502 C81.9813,2.0502 82.6693,2.8232 82.6693,3.6822 L82.6693,13.3032 L90.2283,13.3032 C91.1733,13.3032 91.8613,13.9902 91.8613,14.9352 L91.8613,20.6912 C91.8613,21.5512 91.1733,22.3232 90.2283,22.3232 L82.6693,22.3232 L82.6693,36.0672 C82.6693,38.4732 83.9573,38.8172 85.3313,38.8172 C86.7923,38.8172 88.5953,38.2162 89.5413,37.8722 C90.4863,37.5282 91.1733,37.9582 91.4313,38.8172 L93.1493,44.2282 C93.4923,45.0882 93.0633,45.9472 92.2043,46.2902 C91.7743,46.5482 86.1913,48.5242 81.9813,48.5242 C75.3673,48.5242 72.4463,44.4002 72.4463,37.4422 L72.4463,22.3232 Z" id="Fill-17"></path>
                <path d="M98.5586,17.9717 C98.5586,17.0267 99.3316,16.3397 100.1906,16.3397 L107.3206,16.3397 C108.1796,16.3397 108.9526,17.0267 108.9526,17.9717 L108.9526,46.0327 C108.9526,46.8917 108.1796,47.6647 107.3206,47.6647 L100.1906,47.6647 C99.3316,47.6647 98.5586,46.8917 98.5586,46.0327 L98.5586,17.9717 Z M97.7856,6.5667 C97.7856,3.3017 100.3626,0.6387 103.6266,0.6387 C106.9766,0.6387 109.6406,3.3017 109.6406,6.5667 C109.6406,9.8297 106.9766,12.4937 103.6266,12.4937 C100.3626,12.4937 97.7856,9.8297 97.7856,6.5667 Z" id="Fill-19"></path>
                <path d="M132.4893,39.2461 C137.0413,39.2461 140.7353,35.2951 140.7353,30.3981 C140.7353,25.5881 137.0413,21.7221 132.4893,21.7221 C127.8493,21.7221 124.2423,25.5881 124.2423,30.3981 C124.2423,35.2951 127.8493,39.2461 132.4893,39.2461 M132.4893,12.4441 C142.1963,12.4441 150.0983,20.6911 150.0983,30.3981 C150.0983,40.2771 142.1963,48.5241 132.4893,48.5241 C122.7823,48.5241 114.8793,40.2771 114.8793,30.3981 C114.8793,20.6911 122.7823,12.4441 132.4893,12.4441" id="Fill-21"></path>
                <path d="M154.3052,14.9355 C154.3052,13.9905 155.0782,13.3035 155.9372,13.3035 L159.2022,13.3035 C159.9752,13.3035 160.4042,13.7335 160.6622,14.3345 L161.8642,17.5125 C163.1542,16.1385 167.3622,12.4445 173.9772,12.4445 C184.8872,12.4445 189.2682,20.6055 189.2682,29.5395 L189.2682,46.0325 C189.2682,46.8915 188.4952,47.6645 187.6362,47.6645 L180.5922,47.6645 C179.6472,47.6645 178.9592,46.8915 178.9592,46.0325 L178.9592,29.0235 C178.9592,24.5575 176.6402,21.7215 172.5172,21.7215 C168.0502,21.7215 165.3012,24.8145 164.4422,27.1335 L164.4422,46.0325 C164.4422,47.2355 163.9272,47.6645 162.2942,47.6645 L155.9372,47.6645 C155.0782,47.6645 154.3052,46.8915 154.3052,46.0325 L154.3052,14.9355 Z" id="Fill-23"></path>
            </g>
        </g>
    </g>
</svg>