<?xml version="1.0" encoding="UTF-8"?>
<svg width="162px" height="162px" viewBox="0 0 162 162" version="1.1" xmlns="http://www.w3.org/2000/svg" xmlns:xlink="http://www.w3.org/1999/xlink">
    <!-- Generator: Sketch 51.2 (57519) - http://www.bohemiancoding.com/sketch -->
    <title>Group</title>
    <desc>Created with Sketch.</desc>
    <defs></defs>
    <g id="Page-1" stroke="none" stroke-width="1" fill="none" fill-rule="evenodd">
        <g id="ac-bw-cog" transform="translate(-45.000000, -45.000000)" fill="#FFFFFF">
            <g id="Group" transform="translate(45.000000, 45.000000)">
                <path d="M76.6357,84.3623 C75.8147,85.8643 75.1717,87.7603 74.7067,90.0513 L74.2407,92.6383 L73.8697,94.7703 L73.6027,95.7903 L74.2337,95.3213 L74.9427,96.2393 C75.2147,96.6513 75.5347,96.8383 75.9037,96.7913 C76.7837,96.1753 77.5177,95.2523 78.1037,94.0203 C78.6937,92.7873 79.1447,91.3893 79.4617,89.8243 L80.1037,85.7823 L80.5937,82.7793 L80.8717,81.4083 L81.1597,80.5703 C79.2567,81.1383 77.7487,82.4023 76.6357,84.3623 Z M84.8857,49.8503 L84.4447,52.0263 L83.5107,49.5713 C83.0047,49.9063 82.7027,50.3233 82.6027,50.8193 C82.5467,51.2853 82.6367,51.8193 82.8737,52.4243 L83.7937,55.2343 L84.1077,54.2853 L84.4857,54.1823 L85.0567,54.5963 L85.9827,55.3203 C86.2127,55.3673 86.3847,55.1033 86.5007,54.5313 L86.6407,53.5483 L86.5817,54.1303 L86.2687,55.3793 C86.1207,56.1053 86.2957,56.6153 86.7907,56.9143 C87.6157,56.7623 88.2377,56.4543 88.6507,55.9813 C89.0647,55.5083 89.3457,54.9103 89.4927,54.1833 C89.7797,52.7713 89.4817,51.5803 88.6077,50.6043 C88.3067,51.3013 88.0057,51.6173 87.7007,51.5543 C87.4857,51.4323 87.2797,51.1733 87.0837,50.7743 L86.7767,50.2333 L90.4967,50.9883 L89.1287,52.1423 L89.9507,53.6793 C90.5467,53.2863 90.9097,52.9623 91.0427,52.7093 C91.2877,52.4813 91.5437,51.9983 91.8137,51.2553 L92.7457,53.7103 C92.8547,53.1753 93.0727,52.8343 93.4047,52.6833 C93.7297,52.5303 94.0477,52.4853 94.3547,52.5483 L95.2357,52.9043 C95.6317,53.1043 95.9237,53.3243 96.1147,53.5593 C98.8057,55.3773 100.5317,57.9323 101.2967,61.2293 C101.7057,62.7413 101.8997,64.2313 101.8807,65.6983 C101.8617,67.1633 101.6567,68.8513 101.2697,70.7603 C101.1097,70.9663 100.5187,72.4143 99.4947,75.1103 C99.1327,76.1083 98.6267,76.8403 97.9777,77.3053 C98.3417,77.8563 98.7437,78.1163 99.1887,78.0883 L99.8647,77.6883 C99.1597,78.4193 98.5997,79.0413 98.1787,79.5503 C98.0247,79.7183 97.8067,80.0033 97.5277,80.4043 C97.2487,80.8013 97.0377,81.3453 96.8987,82.0333 L96.7937,82.5503 L96.7817,83.2023 L97.1927,83.8213 L98.9367,82.2673 L98.6707,82.9903 L98.4867,83.9043 L98.0187,86.7913 L97.2637,91.4073 C97.0387,92.5133 96.8017,93.4803 96.5567,94.3033 C96.3087,95.1283 96.0287,95.9253 95.7157,96.6963 C95.0367,98.2673 94.2367,99.4753 93.3107,100.3213 C93.8797,100.8343 94.2397,101.3653 94.3877,101.9103 C94.5337,102.4553 94.5517,103.0183 94.4367,103.5893 C94.3347,104.0873 94.0707,104.8063 93.6397,105.7543 L92.8647,107.7993 C92.8167,108.4273 92.8277,108.8663 92.8957,109.1193 C92.3237,108.8023 91.4277,108.5223 90.2067,108.2743 L84.7327,107.6423 L81.7777,107.2233 C80.2097,106.9053 79.0517,106.3503 78.2957,105.5653 C77.5437,104.7743 77.3357,103.5413 77.6767,101.8603 C76.8187,103.1543 75.5287,104.0263 73.8087,104.4753 C73.1287,104.6923 72.3097,104.9033 71.3557,105.1103 C70.6987,105.2153 70.0567,105.3423 69.4287,105.4933 C68.9487,105.5153 68.4837,105.5013 68.0397,105.4493 C67.5917,105.3993 67.2327,105.3453 66.9687,105.2923 C65.4407,104.9823 63.9097,104.2973 62.3787,103.2293 L58.5717,99.9533 C57.9037,98.3483 57.5307,96.6133 57.4517,94.7483 C57.3717,92.8833 57.5587,90.8443 58.0067,88.6323 C58.3937,86.7243 59.0307,84.7073 59.9187,82.5833 C60.8067,80.4573 61.7017,78.7303 62.6077,77.4043 L68.4127,74.6453 L68.3307,75.3453 L67.9477,76.9383 C67.8017,77.6633 67.8897,78.1973 68.2187,78.5433 C68.2037,78.4213 68.1707,78.1943 68.1157,77.8673 L68.3017,76.9513 C68.6197,75.3853 69.9157,74.4753 72.1937,74.2213 C75.1347,73.8273 76.8607,73.4583 77.3647,73.1263 C77.7767,73.2483 77.8907,73.7683 77.7047,74.6823 C77.5347,75.5233 77.8667,76.0283 78.7067,76.1983 C79.6377,74.3613 80.2337,73.2773 80.4977,72.9553 C80.7637,72.6333 81.1837,72.3193 81.7637,72.0193 C82.3377,71.7193 83.0557,71.4173 83.9107,71.1153 L84.1247,69.1893 L84.6457,67.2093 L85.3067,64.5413 C85.5077,63.5503 85.5317,62.5833 85.3867,61.6373 C85.2387,60.6933 84.8967,59.8873 84.3587,59.2223 L83.5327,58.8763 C82.7307,58.7133 82.0127,58.8763 81.3757,59.3653 C80.7407,59.8503 80.2167,60.4293 79.8037,61.1013 L77.7487,71.2363 L62.6217,67.6333 L63.0297,65.6263 C63.4397,63.6043 63.9047,61.8913 64.4267,60.4873 C64.9497,59.0833 65.7177,57.9473 66.7297,57.0793 L68.5207,55.8913 C68.9327,55.6183 69.1747,55.3083 69.2437,54.9673 L69.2227,54.1863 L68.8717,53.2803 L67.9067,53.9193 L68.0087,53.7023 C69.3727,52.2713 70.4517,51.4553 71.2477,51.2583 C71.0797,51.5023 71.0377,51.7143 71.1197,51.8883 L71.4847,52.7383 C72.0217,51.8533 72.6107,51.0983 73.2537,50.4733 C74.0207,49.8343 74.7707,49.4693 75.5007,49.3803 L76.5537,50.9633 L78.1957,49.9253 L77.5107,49.1913 C78.4257,49.1773 78.9277,49.6363 79.0167,50.5693 L79.4927,52.9303 L80.6577,49.8303 C81.1787,49.0203 82.1647,48.7623 83.6147,49.0563 L85.4007,49.9553 L84.8857,49.8503 Z" id="Fill-1"></path>
                <path d="M117.874,107.8535 L125.658,111.0835 C126.557,109.6555 127.411,108.1945 128.204,106.6725 L121.685,101.2345 C122.144,100.2855 122.583,99.3115 122.995,98.3135 C123.406,97.3205 123.77,96.3205 124.115,95.3185 L132.577,96.0445 C133.085,94.4115 133.507,92.7685 133.871,91.1255 L126.069,87.9415 C126.469,85.8295 126.744,83.7185 126.886,81.6245 L135.31,79.7915 C135.361,78.1065 135.343,76.4205 135.259,74.7555 L126.802,74.0805 C126.628,71.9825 126.324,69.9085 125.895,67.8865 L133.621,63.6375 C133.221,62.0325 132.756,60.4515 132.225,58.8975 L123.81,60.7765 C123.083,58.8605 122.233,56.9945 121.272,55.2005 L127.672,48.8875 C126.864,47.4955 125.994,46.1365 125.06,44.8255 L117.357,49.1135 C116.142,47.5195 114.81,46.0205 113.383,44.6055 L117.946,36.7325 C116.788,35.6625 115.578,34.6395 114.316,33.6825 L107.938,40.0335 C106.34,38.9055 104.643,37.8865 102.862,36.9765 L105.213,28.1745 C104.501,27.8415 103.786,27.5175 103.054,27.2145 C102.326,26.9175 101.587,26.6455 100.85,26.3775 L96.323,34.2865 C94.425,33.6815 92.503,33.2085 90.568,32.8825 L90.51,23.8815 C88.936,23.6745 87.356,23.5515 85.781,23.4955 L83.48,32.3005 C81.473,32.2975 79.469,32.4305 77.482,32.7045 L75.032,24.2365 C73.447,24.5135 71.871,24.8615 70.314,25.2805 L70.421,34.2725 C68.472,34.8675 66.561,35.5995 64.69,36.4475 L60.036,29.1845 C58.563,29.9155 57.122,30.7105 55.711,31.5745 L58.212,40.0285 C56.479,41.1625 54.805,42.4225 53.201,43.7895 L46.721,38.3185 C45.488,39.4405 44.288,40.6235 43.14,41.8565 L47.836,49.0895 C46.455,50.6715 45.167,52.3695 43.965,54.1505 L36.18,50.9185 C35.285,52.3435 34.429,53.8065 33.639,55.3295 L40.159,60.7685 C39.698,61.7195 39.253,62.6895 38.843,63.6835 C38.431,64.6795 38.068,65.6785 37.724,66.6815 L29.267,65.9575 C28.756,67.5905 28.332,69.2315 27.967,70.8755 L35.769,74.0585 C35.369,76.1705 35.094,78.2805 34.958,80.3775 L26.533,82.2075 C26.478,83.9005 26.499,85.5805 26.581,87.2425 L35.036,87.9225 C35.211,90.0165 35.513,92.0885 35.949,94.1215 L28.223,98.3655 C28.62,99.9675 29.085,101.5465 29.614,103.1035 L38.031,101.2205 C38.761,103.1455 39.603,105.0045 40.571,106.7985 L34.165,113.1125 C34.977,114.5055 35.848,115.8635 36.781,117.1785 L44.484,112.8885 C45.702,114.4825 47.034,115.9855 48.456,117.3995 L43.897,125.2655 C45.058,126.3415 46.263,127.3605 47.524,128.3215 L53.898,121.9675 C55.507,123.0975 57.201,124.1135 58.981,125.0225 L56.629,133.8255 C57.341,134.1575 58.055,134.4835 58.784,134.7815 C59.515,135.0825 60.253,135.3555 60.99,135.6215 L65.517,127.7155 C67.422,128.3195 69.344,128.7945 71.273,129.1185 L71.331,138.1165 C72.905,138.3275 74.482,138.4525 76.06,138.5025 L78.36,129.7055 C80.368,129.7045 82.369,129.5715 84.357,129.2975 L86.813,137.7645 C88.397,137.4895 89.971,137.1435 91.524,136.7165 L91.42,127.7275 C93.365,127.1295 95.284,126.4035 97.153,125.5535 L101.804,132.8145 C103.276,132.0825 104.716,131.2875 106.131,130.4265 L103.63,121.9745 C105.362,120.8355 107.037,119.5805 108.638,118.2165 L115.117,123.6815 C116.354,122.5595 117.55,121.3825 118.699,120.1425 L114.007,112.9115 C115.387,111.3305 116.676,109.6335 117.874,107.8535 M128.302,132.1025 L133.518,141.9545 C131.27,143.8955 128.921,145.7055 126.48,147.3795 L118.275,139.8155 C114.987,141.8985 111.546,143.7135 107.968,145.2205 L109.502,156.2525 C106.732,157.3065 103.912,158.2225 101.038,158.9655 L95.913,149.0455 C92.132,149.8845 88.27,150.4105 84.365,150.6065 L82.031,161.5225 C79.081,161.5645 76.124,161.4385 73.16,161.1525 L71.733,150.0905 C67.93,149.5815 64.124,148.7435 60.359,147.5745 L54.432,157.0315 C53.04,156.5455 51.652,156.0255 50.274,155.4585 C48.895,154.8915 47.546,154.2855 46.218,153.6535 L48.666,142.7585 C45.166,140.9395 41.877,138.8595 38.817,136.5405 L30.02,143.3955 C27.708,141.5155 25.517,139.5195 23.451,137.4135 L29.477,128.0125 C26.845,125.1315 24.477,122.0395 22.377,118.7855 L11.75,122.2185 C10.235,119.6695 8.875,117.0315 7.649,114.3325 L16.505,107.5785 C15.025,103.9895 13.855,100.2735 12.99,96.4795 L1.836,96.0755 C1.28,93.1755 0.886,90.2365 0.651,87.2715 L11.297,83.9485 C11.134,80.0925 11.285,76.2015 11.776,72.3095 L1.444,68.1205 C1.919,65.2165 2.551,62.3225 3.358,59.4395 L14.504,59.9575 C15.091,58.1245 15.73,56.2955 16.478,54.4795 C17.225,52.6625 18.055,50.9115 18.933,49.1955 L10.651,41.7165 C12.108,39.1045 13.695,36.5995 15.404,34.2075 L25.691,38.5035 C28.083,35.3925 30.71,32.5215 33.542,29.8975 L28.318,20.0425 C30.572,18.1035 32.922,16.2935 35.357,14.6245 L43.564,22.1865 C46.853,20.1035 50.297,18.2885 53.874,16.7825 L52.34,5.7465 C55.108,4.6925 57.927,3.7785 60.804,3.0315 L65.936,12.9535 C69.713,12.1205 73.573,11.5905 77.472,11.3955 L79.812,0.4785 C82.756,0.4335 85.715,0.5595 88.683,0.8475 L90.109,11.9115 C93.915,12.4205 97.715,13.2565 101.482,14.4265 L107.412,4.9665 C108.802,5.4535 110.187,5.9725 111.565,6.5405 C112.944,7.1085 114.296,7.7125 115.628,8.3485 L113.176,19.2435 C116.674,21.0625 119.963,23.1435 123.024,25.4615 L131.826,18.6025 C134.135,20.4845 136.325,22.4805 138.391,24.5865 L132.363,33.9855 C134.998,36.8725 137.367,39.9625 139.462,43.2185 L150.092,39.7815 C151.606,42.3315 152.968,44.9675 154.189,47.6645 L145.333,54.4205 C146.815,58.0145 147.984,61.7245 148.849,65.5205 L160.003,65.9245 C160.562,68.8265 160.957,71.7645 161.188,74.7275 L150.546,78.0535 C150.708,81.9085 150.557,85.7985 150.065,89.6905 L160.397,93.8805 C159.924,96.7825 159.292,99.6805 158.481,102.5615 L147.336,102.0415 C146.754,103.8785 146.109,105.7075 145.362,107.5275 C144.615,109.3385 143.786,111.0905 142.906,112.8045 L151.19,120.2815 C149.736,122.8945 148.144,125.3975 146.438,127.7915 L136.151,123.4995 C133.763,126.6105 131.131,129.4845 128.302,132.1025" id="Fill-3"></path>
            </g>
        </g>
    </g>
</svg>