<svg width="2798" height="225" xmlns="http://www.w3.org/2000/svg"><g fill="#FFF" fill-rule="evenodd"><path d="M67.768 65.2873c0-1.437 1.149-2.729 2.729-2.729h17.09c1.437 0 2.729 1.292 2.729 2.729v76.693h34.181c1.58 0 2.729 1.292 2.729 2.728v15.655c0 1.435-1.149 2.728-2.729 2.728h-54c-1.58 0-2.729-1.293-2.729-2.728v-95.076zM183.3784 141.5485c15.798 0 28.724-12.926 28.724-28.58 0-15.798-12.926-28.868-28.724-28.868-15.654 0-28.581 13.07-28.581 28.868 0 15.654 12.927 28.58 28.581 28.58m0-80.427c28.724 0 51.703 23.123 51.703 51.847s-22.979 51.559-51.703 51.559c-28.724 0-51.56-22.835-51.56-51.559 0-28.724 22.836-51.847 51.56-51.847M237.2314 66.2922c-.862-1.867.287-3.734 2.441-3.734h19.102c1.149 0 2.154.862 2.441 1.58l23.698 52.42h.861l23.697-52.42c.287-.718 1.293-1.58 2.442-1.58h19.101c2.155 0 3.303 1.867 2.442 3.734l-45.097 96.656c-.43.861-1.292 1.58-2.441 1.58h-1.437c-1.148 0-2.01-.719-2.44-1.58l-44.81-96.656zM343.7929 65.2873c0-1.437 1.149-2.729 2.729-2.729h59.458c1.58 0 2.729 1.292 2.729 2.729v15.654c0 1.436-1.149 2.729-2.729 2.729h-39.782v17.808h32.745c1.436 0 2.728 1.293 2.728 2.729v15.655c0 1.58-1.292 2.729-2.728 2.729h-32.745v19.389h39.782c1.58 0 2.729 1.292 2.729 2.728v15.655c0 1.435-1.149 2.728-2.729 2.728h-59.458c-1.58 0-2.729-1.293-2.729-2.728v-95.076zM501.1963 61.2658c12.063 0 25.277 5.026 35.042 13.501 1.293 1.004 1.437 2.728.288 3.877l-11.346 12.064c-1.149 1.005-2.729 1.005-3.878.143-5.457-5.026-11.776-6.893-18.814-6.893-15.654 0-28.292 13.212-28.292 29.011 0 15.654 12.781 28.58 28.436 28.58 4.165 0 8.473-.574 12.782-2.298v-8.33h-9.048c-1.58 0-2.729-1.15-2.729-2.585v-14.218c0-1.581 1.149-2.729 2.729-2.729h28.868c1.436 0 2.585 1.293 2.585 2.729l.144 38.633c0 .719-.576 1.867-1.15 2.298 0 0-14.792 9.336-35.617 9.336-28.581 0-51.56-22.693-51.56-51.416 0-28.724 22.979-51.703 51.56-51.703M600.4341 141.5485c15.798 0 28.724-12.926 28.724-28.58 0-15.798-12.926-28.868-28.724-28.868-15.654 0-28.581 13.07-28.581 28.868 0 15.654 12.927 28.58 28.581 28.58m0-80.427c28.724 0 51.703 23.123 51.703 51.847s-22.979 51.559-51.703 51.559c-28.724 0-51.56-22.835-51.56-51.559 0-28.724 22.836-51.847 51.56-51.847M704.2661 141.8356c16.229 0 28.006-12.782 28.006-29.154 0-16.229-11.777-29.012-28.006-29.012h-13.787v58.166h13.787zm-36.192-76.548c0-1.437 1.149-2.729 2.585-2.729h35.044c27.718 0 50.41 22.548 50.41 50.123 0 27.862-22.692 50.41-50.41 50.41h-35.044c-1.436 0-2.585-1.293-2.585-2.729v-95.075zM863.0996 65.2873c0-1.437 1.149-2.729 2.729-2.729h17.09c1.437 0 2.729 1.292 2.729 2.729v76.693h34.181c1.58 0 2.729 1.292 2.729 2.728v15.655c0 1.435-1.149 2.728-2.729 2.728h-54c-1.58 0-2.729-1.293-2.729-2.728v-95.076zM978.71 141.5485c15.798 0 28.724-12.926 28.724-28.58 0-15.798-12.926-28.868-28.724-28.868-15.654 0-28.581 13.07-28.581 28.868 0 15.654 12.927 28.58 28.581 28.58m0-80.427c28.724 0 51.703 23.123 51.703 51.847s-22.979 51.559-51.703 51.559c-28.724 0-51.56-22.835-51.56-51.559 0-28.724 22.836-51.847 51.56-51.847M1032.5635 66.2922c-.862-1.867.287-3.734 2.441-3.734h19.102c1.149 0 2.154.862 2.441 1.58l23.697 52.42h.862l23.697-52.42c.287-.718 1.293-1.58 2.442-1.58h19.101c2.155 0 3.303 1.867 2.442 3.734l-45.097 96.656c-.43.861-1.292 1.58-2.441 1.58h-1.437c-1.148 0-2.01-.719-2.441-1.58l-44.809-96.656zM1139.1245 65.2873c0-1.437 1.149-2.729 2.729-2.729h59.458c1.58 0 2.729 1.292 2.729 2.729v15.654c0 1.436-1.149 2.729-2.729 2.729h-39.782v17.808h32.745c1.436 0 2.728 1.293 2.728 2.729v15.655c0 1.58-1.292 2.729-2.728 2.729h-32.745v19.389h39.782c1.58 0 2.729 1.292 2.729 2.728v15.655c0 1.435-1.149 2.728-2.729 2.728h-59.458c-1.58 0-2.729-1.293-2.729-2.728v-95.076zM1288.1978 105.6442c6.176 0 11.346-4.884 11.346-11.346 0-6.032-5.17-10.628-11.346-10.628h-13.644v21.974h13.644zm-36.048-40.357c0-1.436 1.149-2.729 2.728-2.729h34.612c17.666 0 32.171 14.362 32.171 31.74 0 17.808-14.505 32.315-32.027 32.315h-15.08v33.75c0 1.435-1.293 2.728-2.729 2.728h-16.947c-1.579 0-2.728-1.293-2.728-2.728v-95.076zM1334.8716 65.2873c0-1.437 1.149-2.729 2.729-2.729h59.458c1.581 0 2.73 1.292 2.73 2.729v15.654c0 1.436-1.149 2.729-2.73 2.729h-39.782v17.808h32.745c1.436 0 2.729 1.293 2.729 2.729v15.655c0 1.58-1.293 2.729-2.729 2.729h-32.745v19.389h39.782c1.581 0 2.73 1.292 2.73 2.728v15.655c0 1.435-1.149 2.728-2.73 2.728h-59.458c-1.58 0-2.729-1.293-2.729-2.728v-95.076zM1461.8291 141.5485c15.799 0 28.724-12.926 28.724-28.58 0-15.798-12.925-28.868-28.724-28.868-15.654 0-28.58 13.07-28.58 28.868 0 15.654 12.926 28.58 28.58 28.58m0-80.427c28.724 0 51.703 23.123 51.703 51.847s-22.979 51.559-51.703 51.559c-28.724 0-51.559-22.835-51.559-51.559 0-28.724 22.835-51.847 51.559-51.847M1565.5186 105.6442c6.175 0 11.346-4.884 11.346-11.346 0-6.032-5.171-10.628-11.346-10.628h-13.644v21.974h13.644zm-36.049-40.357c0-1.436 1.15-2.729 2.729-2.729h34.612c17.665 0 32.171 14.362 32.171 31.74 0 17.808-14.506 32.315-32.026 32.315h-15.081v33.75c0 1.435-1.293 2.728-2.729 2.728h-16.947c-1.579 0-2.729-1.293-2.729-2.728v-95.076zM1612.1924 65.2873c0-1.437 1.149-2.729 2.729-2.729h17.09c1.436 0 2.729 1.292 2.729 2.729v76.693h34.181c1.58 0 2.729 1.292 2.729 2.728v15.655c0 1.435-1.149 2.728-2.729 2.728h-54c-1.58 0-2.729-1.293-2.729-2.728v-95.076zM1684.1426 65.2873c0-1.437 1.148-2.729 2.728-2.729h59.459c1.579 0 2.728 1.292 2.728 2.729v15.654c0 1.436-1.149 2.729-2.728 2.729h-39.783v17.808h32.745c1.436 0 2.729 1.293 2.729 2.729v15.655c0 1.58-1.293 2.729-2.729 2.729h-32.745v19.389h39.783c1.579 0 2.728 1.292 2.728 2.728v15.655c0 1.435-1.149 2.728-2.728 2.728h-59.459c-1.58 0-2.728-1.293-2.728-2.728v-95.076zM1870.6973 83.6701h-20.538c-1.579 0-2.73-1.292-2.73-2.729v-15.654c0-1.436 1.151-2.729 2.73-2.729h63.767c1.58 0 2.729 1.293 2.729 2.729v15.654c0 1.437-1.149 2.729-2.729 2.729h-20.539v76.693c0 1.435-1.292 2.728-2.728 2.728h-17.234c-1.436 0-2.728-1.293-2.728-2.728v-76.693zM1970.5098 128.6228l-10.915-23.697h-.144l-10.771 23.697h21.83zm-59.028 30.734l44.954-96.655c.43-.862 1.435-1.58 2.44-1.58h1.437c1.006 0 2.01.718 2.441 1.58l44.953 96.655c.863 1.868-.288 3.735-2.441 3.735h-15.943c-2.584 0-3.733-.862-5.026-3.591l-5.171-11.346h-39.063l-5.171 11.49c-.718 1.723-2.297 3.447-5.17 3.447h-15.798c-2.154 0-3.304-1.867-2.442-3.735zM2018.0439 66.0051c0-1.867 1.437-3.447 3.447-3.447h16.803c1.867 0 3.447 1.58 3.447 3.447v37.772l31.884-39.783c.573-.718 1.866-1.436 2.728-1.436h18.095c2.73 0 4.166 3.16 2.586 5.314l-33.606 42.08 36.623 47.681c1.579 2.155 0 5.315-2.73 5.315h-19.819c-1.005 0-2.298-.574-2.585-1.005l-33.176-45.097v42.799c0 1.867-1.58 3.446-3.447 3.446h-16.803c-2.01 0-3.447-1.579-3.447-3.446v-93.64zM2113.2598 65.2873c0-1.437 1.148-2.729 2.729-2.729h59.458c1.58 0 2.728 1.292 2.728 2.729v15.654c0 1.436-1.148 2.729-2.728 2.729h-39.783v17.808h32.745c1.437 0 2.729 1.293 2.729 2.729v15.655c0 1.58-1.292 2.729-2.729 2.729h-32.745v19.389h39.783c1.58 0 2.728 1.292 2.728 2.728v15.655c0 1.435-1.148 2.728-2.728 2.728h-59.458c-1.581 0-2.729-1.293-2.729-2.728v-95.076zM2272.3867 128.6228l-10.915-23.697h-.144l-10.771 23.697h21.83zm-59.028 30.734l44.954-96.655c.43-.862 1.435-1.58 2.44-1.58h1.437c1.006 0 2.01.718 2.441 1.58l44.953 96.655c.862 1.868-.288 3.735-2.441 3.735h-15.943c-2.584 0-3.733-.862-5.026-3.591l-5.171-11.346h-39.063l-5.17 11.49c-.719 1.723-2.298 3.447-5.171 3.447h-15.798c-2.154 0-3.304-1.867-2.442-3.735zM2363.5811 61.1218c14.361 0 24.989 4.453 34.755 13.357 1.293 1.149 1.293 2.873.144 4.021l-11.203 11.633c-1.006 1.006-2.585 1.006-3.591 0-5.313-4.739-12.35-7.324-19.387-7.324-16.23 0-28.15 13.5-28.15 29.585 0 15.942 12.064 29.155 28.293 29.155 6.749 0 14.075-2.442 19.244-6.894 1.006-.862 2.874-.862 3.736.144l11.201 11.92c1.006 1.006.861 2.873-.143 3.878-9.766 9.479-22.118 13.931-34.899 13.931-28.724 0-51.847-22.836-51.847-51.559 0-28.724 23.123-51.847 51.847-51.847M2427.2012 83.6701h-20.538c-1.579 0-2.73-1.292-2.73-2.729v-15.654c0-1.436 1.151-2.729 2.73-2.729h63.767c1.58 0 2.729 1.293 2.729 2.729v15.654c0 1.437-1.149 2.729-2.729 2.729h-20.539v76.693c0 1.435-1.292 2.728-2.727 2.728h-17.234c-1.437 0-2.729-1.293-2.729-2.728v-76.693zM2486.083 65.2873c0-1.437 1.292-2.729 2.728-2.729h17.234c1.436 0 2.728 1.292 2.728 2.729v95.076c0 1.435-1.292 2.728-2.728 2.728h-17.234c-1.436 0-2.728-1.293-2.728-2.728v-95.076zM2576.2725 141.5485c15.798 0 28.724-12.926 28.724-28.58 0-15.798-12.926-28.868-28.724-28.868-15.655 0-28.581 13.07-28.581 28.868 0 15.654 12.926 28.58 28.581 28.58m0-80.427c28.724 0 51.703 23.123 51.703 51.847s-22.979 51.559-51.703 51.559c-28.724 0-51.56-22.835-51.56-51.559 0-28.724 22.836-51.847 51.56-51.847M2643.7686 63.7072c0-1.436 1.293-2.585 2.729-2.585h3.59l57.304 55.15h.145v-50.985c0-1.436 1.148-2.729 2.727-2.729h17.234c1.437 0 2.729 1.293 2.729 2.729v96.656c0 1.435-1.292 2.585-2.729 2.585h-2.296c-.431 0-1.581-.431-1.868-.719l-56.73-57.016h-.143v53.57c0 1.435-1.149 2.728-2.729 2.728h-17.091c-1.435 0-2.727-1.293-2.727-2.728l-.145-96.656z"/><path d="M2794.0059.84H3.9889c-1.657 0-3 1.343-3 3v217.97c0 1.656 1.343 3 3 3h2790.017c1.657 0 3-1.344 3-3V3.84c0-1.657-1.343-3-3-3zM25.2259 200.573h2747.544V25.076H25.2259v175.497z"/></g></svg>